<svg xmlns="http://www.w3.org/2000/svg" xmlns:xlink="http://www.w3.org/1999/xlink" viewBox="0 0 133.05 133.05"><defs><style>.cls-1{fill:#2e1332;}.cls-2{opacity:0.1;}.cls-3{fill:url(#Dégradé_sans_nom_7);}.cls-4{fill:#335aa6;}.cls-5{fill:#1e8b58;}.cls-6{fill:#bc3767;}.cls-7{fill:#915421;}.cls-8{fill:#2e4a9a;}.cls-9{fill:#53398e;}.cls-10{fill:#547a3b;}.cls-11{fill:#078285;}.cls-12{fill:#6dc4c7;}.cls-13{fill:#9f4f4f;}.cls-14{fill:#3fc0f0;}.cls-15{fill:#385da8;}.cls-16{fill:#6ebc88;}.cls-17{fill:#dd67a4;}.cls-18{fill:#e28468;}.cls-19{fill:#a3ac59;}.cls-20{fill:#534e9c;}.cls-21{fill:#5b8345;}.cls-22{fill:#70c7da;}.cls-23{fill:#85cbcb;}.cls-24{fill:#090a1d;}.cls-25{fill:#6670b3;}.cls-26{fill:#abd3a0;}.cls-27{fill:#f195be;}.cls-28{fill:#c67eb4;}.cls-29{fill:#dbc08a;}</style><linearGradient id="Dégradé_sans_nom_7" x1="66.53" x2="66.53" y2="133.05" gradientUnits="userSpaceOnUse"><stop offset="0" stop-color="#fff"/><stop offset="1"/></linearGradient></defs><g id="Calque_2" data-name="Calque 2"><g id="Calque_2_-_copie" data-name="Calque 2 - copie"><rect class="cls-1" width="133.05" height="133.05"/></g><g id="Calque_2-2" data-name="Calque 2" class="cls-2"><rect class="cls-3" width="133.05" height="133.05"/></g><g id="Calque_5" data-name="Calque 5"><path class="cls-4" d="M48.65,24.62c1.26-1.78,1.52-4,2.61-5.89C56.71,9.18,67,8.18,74.76,11.87c5.22,2.46,8.07,7.22,8.91,13a1.06,1.06,0,0,1,.21.88c-5.4,6-10.85,11.93-17.35,16.78-1.67-.35-2.34-1.89-3.41-2.93-4.76-4.68-9.43-9.45-14.2-14.12A1.36,1.36,0,0,1,48.65,24.62Z"/><path class="cls-5" d="M24.84,84.42c-2-1.37-4.34-1.89-6.48-2.91-6.74-3.24-9-12-8.27-17.35,1.24-8.79,6.77-12.91,14.72-14.84,3.92,2.82,7.12,6.43,10.49,9.84,2.38,2.4,5.11,4.49,7,7.4.11,1.15-.66,1.79-1.43,2.42-4.48,3.69-8.25,8.13-12.49,12.08a13.28,13.28,0,0,0-2.21,3.57A1.08,1.08,0,0,1,24.84,84.42Z"/><path class="cls-6" d="M108.66,84c2.26,3.8,3.93,7.87,3.26,12.33a18.51,18.51,0,0,1-5.79,11.29c-5.38,5.05-16.14,6-21.82,1.16-1.18-1.14-.94-2.62-1-4,0-5.69,0-11.37,0-17.06,0-1.37-.7-2.84.5-4.07,7.93-.34,15.86-.06,23.79-.12A1.32,1.32,0,0,1,108.66,84Z"/><path class="cls-7" d="M83.65,108.84c-2.51,9.13-7,13.76-16.18,14.28-7.87.45-13.71-2.39-17.37-11.4-.37-.91-.59-1.87-.88-2.81a1,1,0,0,1-.14-.88A184.52,184.52,0,0,1,66.45,90.81a1.16,1.16,0,0,1,.93.22c5.27,5.83,11.33,10.88,16.34,17A.74.74,0,0,1,83.65,108.84Z"/><path class="cls-8" d="M83.6,25.72c0-.27.05-.55.07-.82,6.94-4.86,16.92-3.9,21.36,0,9.7,8.57,7.54,17.36,3.75,24.5a2,2,0,0,1-1,.6c-7.35-.22-14.7-.43-22,.06a3.25,3.25,0,0,1-2.21-.48c-.17-.28-.45-.55-.43-.87C83.54,41.06,82.79,33.37,83.6,25.72Z"/><path class="cls-9" d="M108,49.47l.75,0c8.47,1.95,13.64,7.25,14.26,15.87.54,7.64-2.43,14.13-11.29,17.66-1,.4-2.06.67-3.09,1a2.51,2.51,0,0,0-.61-.1c-1.78-.53-2.78-2-4-3.28-4.28-4.46-9.07-8.44-12.9-13.34a2.49,2.49,0,0,1,1.07-2.57c5.07-4.19,9.4-9.12,13.91-13.87A14.93,14.93,0,0,1,108,49.47Z"/><path class="cls-10" d="M49.32,108.27a4.49,4.49,0,0,1-.1.64c-6.32,3.59-12.77,4.12-19.37.81-6.1-3.06-10.15-13.06-7.72-19.6.72-1.94.25-4.56,2.71-5.7l1.4,0A2.42,2.42,0,0,1,28,83.56c6.63-.14,13.27-.58,19.89.24a2.94,2.94,0,0,1,1.7,2.6c.31,6.66-.09,13.32.23,20A3.33,3.33,0,0,1,49.32,108.27Z"/><path class="cls-11" d="M48.65,24.62l.7.67c.76,5,.26,10,.23,15,0,3.11.88,6.28-.31,9.36-7.54.44-15.09.24-22.64,0a3.22,3.22,0,0,1-1.77-.82c-3.19-3.74-3.84-8.18-3.14-12.79A16.82,16.82,0,0,1,44.27,22.73C45.77,23.29,47.55,23.13,48.65,24.62Z"/><path class="cls-12" d="M24.86,48.85c6.52,0,13,0,19.55,0a15.55,15.55,0,0,1,4.81.62.72.72,0,0,1,.87-.06c1.26,2.38,2.06,4.95,3.75,7.17,2.34,3.07,5.85,4,9,5.64a2.41,2.41,0,0,1,1,2.27,3.33,3.33,0,0,1-.3,1A3,3,0,0,1,60.33,67c-5.56-1.83-11.11-2.78-16.57.38a1.24,1.24,0,0,1-1.69-.79A227.07,227.07,0,0,1,24.81,49.32C24.83,49.16,24.85,49,24.86,48.85Z"/><path class="cls-13" d="M83.65,108.84l-.09-.73a7.46,7.46,0,0,1-1-4.08c0-4.37-.08-8.74,0-13.1,0-1.4-.44-3.19,1.58-3.85l.12,21.65Z"/><path class="cls-14" d="M63.23,64.89c-.06-.8.06-1.67-.71-2.25a6.85,6.85,0,0,1-1.66-2.8A13.86,13.86,0,0,0,53.29,52a6.83,6.83,0,0,1-3.36-2.51l-.71-.08c-.76-8.06-1.07-16.11.13-24.15A189.52,189.52,0,0,1,66.42,42.23a3.84,3.84,0,0,1,2.49,2.84c1.61,6.55,2,13-3,18.44C65.17,64.27,64.56,65.28,63.23,64.89Z"/><path class="cls-15" d="M65.17,63.27c5.09-6.74,5.12-13.77,1.25-21q7.24-7.08,14.49-14.14c.86-.83,1.8-1.58,2.69-2.37.89,1.39.69,3,.66,4.46-.13,6.43.45,12.88-.63,19.27.2.58-.15.89-.57,1.17-6.51,1.75-10,6.57-12.46,12.38a3.7,3.7,0,0,1-2.34,1.12C67.14,64.18,66,64.25,65.17,63.27Z"/><path class="cls-16" d="M60.57,66.7l2.52-1.33c1,.83.91,2,.92,3.08a3.21,3.21,0,0,1-1,2.39c-6.15,2.3-10.92,6-12.64,12.7a1.75,1.75,0,0,1-.69.63c-.59.27-1.25-.13-1.85.17l-21.62,0c-1.37-1.58.14-2.33,1-3.17,4.92-4.89,9.89-9.73,14.84-14.59l1.31.6C49.15,68.33,54.9,68.91,60.57,66.7Z"/><path class="cls-17" d="M91.51,67.2c5.75,5.32,11.22,10.91,16.54,16.65-.89.94-2.06.59-3.11.56-7.1-.2-14.23.56-21.32-.46l-.39-.25a7.92,7.92,0,0,1-1.48-2.54c-2.23-5.32-6.4-8.4-11.7-10.2a1.91,1.91,0,0,1-.63-2.34,3.18,3.18,0,0,1,2.51-1.89,29.89,29.89,0,0,0,18.61,0A2.17,2.17,0,0,1,91.51,67.2Z"/><path class="cls-18" d="M69.87,68.7a1.78,1.78,0,0,0,.49,1.91c2.11,3.15,3.46,6.81,6.77,9.13,2.07,1.45,4.65,2.05,6.4,4l.09.24.57,3.13c-1.22,2.26-.46,4.68-.54,7-.15,4.67-.07,9.34-.09,14A196,196,0,0,1,66.59,91a.89.89,0,0,1-.33-.89,19.7,19.7,0,0,0,.06-17,2.79,2.79,0,0,1-.21-1c.48-1.82,1.35-3.29,3.36-3.76Z"/><path class="cls-19" d="M66.58,71.88l0,.73a30.86,30.86,0,0,0,0,17.76,4.16,4.16,0,0,0,0,.61,225.25,225.25,0,0,1-17.26,17.29c-1.31-5.81-.34-11.7-.63-17.55-.06-1.41,0-2.83,0-4.24.67-.78-.09-1.87.58-2.65l.71-.16c1.25-2,3.56-2.4,5.36-3.59,3.53-2.33,5.11-6.08,7.2-9.47.7-.45.58-1.21.71-1.88C65.93,68.09,66.08,70.17,66.58,71.88Z"/><path class="cls-20" d="M91.51,67.2h-.3l-.31,0A27.53,27.53,0,0,0,81,65.47a24.33,24.33,0,0,0-9.23,1.72L69.87,68.7l-.18-.19c-.84-1.61-1.7-3.21-1.35-5.13l2.08-.72c2.32-2.31,5.81-2.77,8-5.43,1.87-2.21,2.7-4.95,4.53-7.11l.64-.67a95.35,95.35,0,0,1,24.4,0A104.34,104.34,0,0,1,93.38,64.68C92.56,65.41,91.6,66,91.51,67.2Z"/><path class="cls-21" d="M49.25,83.83c0,.93.22,1.9-.58,2.65-.07-.79,0-1.64-.81-2.14A1.44,1.44,0,0,1,49.25,83.83Z"/><path class="cls-22" d="M49.93,49.52c5.15,2.23,10.14,4.64,12,10.62.24.82.43,1.66.64,2.5C55.73,60.76,51,56.89,49.93,49.52Z"/><path class="cls-23" d="M60.57,66.7c-2.15,2.8-5.41,2.28-8.25,2.46-3,.19-6.27.1-8.94-2a5,5,0,0,1,5-2.55C52.48,65,56.92,63.51,60.57,66.7Z"/><path class="cls-24" d="M68.34,63.38a6.18,6.18,0,0,1,1.35,5.13c-1.11,1-2.56,1.79-3.11,3.37a7.84,7.84,0,0,0-3.35-3.15c0-1.12-.09-2.24-.14-3.36a.37.37,0,0,0,.14-.48c1-.13,1.2-1.19,1.94-1.62Z"/><path class="cls-25" d="M83,50.12c-1.24,6.35-6,11-12.57,12.54C71.91,56.13,76.79,51.17,83,50.12Z"/><path class="cls-26" d="M62.52,70.61C61.2,77.71,56.11,81.21,50,83.67A13.67,13.67,0,0,1,58.38,72.3C59.74,71.7,60.78,70.28,62.52,70.61Z"/><path class="cls-27" d="M83.53,83.71c-6.65-2.09-11.61-5.88-13.17-13.1C77.67,72,81.39,77.08,83.53,83.71Z"/><path class="cls-28" d="M71.8,67.19a7,7,0,0,1,5.76-2.53c4.58.11,9.47-1.33,13.34,2.52A22.55,22.55,0,0,1,71.8,67.19Z"/><path class="cls-29" d="M66.59,90.37c-3.09-4.07-3.08-14,0-17.76,2.94,3.51,2.63,7.73,2.27,11.81C68.69,86.49,68.49,88.84,66.59,90.37Z"/></g></g></svg>