<svg xmlns="http://www.w3.org/2000/svg" xmlns:xlink="http://www.w3.org/1999/xlink" viewBox="0 0 133.05 133.05"><defs><style>.cls-1{fill:#7f689a;}.cls-2{opacity:0.1;}.cls-3{fill:url(#Dégradé_sans_nom_28);}.cls-4{fill:#fff;}</style><linearGradient id="Dégradé_sans_nom_28" x1="66.53" x2="66.53" y2="133.05" gradientUnits="userSpaceOnUse"><stop offset="0" stop-color="#c55299"/><stop offset="1"/></linearGradient></defs><g id="Calque_2" data-name="Calque 2"><g id="Calque_2_-_copie" data-name="Calque 2 - copie"><rect class="cls-1" width="133.05" height="133.05"/></g><g id="Calque_2-2" data-name="Calque 2" class="cls-2"><rect class="cls-3" width="133.05" height="133.05"/></g><g id="Calque_5" data-name="Calque 5"><path class="cls-4" d="M26.68,93.14V85.29c0-1.42,0-1.42,1.5-1.58A12,12,0,0,0,35.8,80c7.52-7.32,3.17-20.38-7.23-21.8-1.88-.33-1.89-.28-1.89-2.17V40.89A5,5,0,0,1,32,35.56c5.32,0,10.65,0,16,0,.81,0,1.17-.18,1.27-1.07A12.61,12.61,0,0,1,56.49,24a12.87,12.87,0,0,1,18.35,9.48c.33,2.08.33,2.08,2.44,2.08H92.2a5,5,0,0,1,5.35,5.33c0,5.32,0,10.64,0,16,0,.86.21,1.17,1.13,1.28,15.18,1.59,15.87,23.13.67,25.55-2.13.29-1.77.12-1.78,1.93,0,5.12,0,10.23,0,15.34a5,5,0,0,1-5.38,5.4c-5.32,0-10.65,0-16,0-.83,0-1.13-.21-1.23-1.09-.72-6-4.72-10.45-10.36-11.55A12.84,12.84,0,0,0,49.34,104.9c-.16,1.45-.16,1.46-1.61,1.46-5.12,0-10.24-.09-15.36,0a5.29,5.29,0,0,1-5.71-5.75C26.78,98.14,26.68,95.63,26.68,93.14Z"/></g></g></svg>