<svg xmlns="http://www.w3.org/2000/svg" xmlns:xlink="http://www.w3.org/1999/xlink" viewBox="0 0 264.29 264.29"><defs><style>.cls-1{fill:url(#Dégradé_sans_nom_218);}.cls-2,.cls-4,.cls-5{fill:#d3e8ed;}.cls-3{fill:#010101;}.cls-4,.cls-5,.cls-6{stroke:#010101;stroke-miterlimit:10;}.cls-5{stroke-width:2.13px;}.cls-6{fill:#1d1d1b;stroke-width:1.42px;}</style><linearGradient id="Dégradé_sans_nom_218" x1="132.15" x2="132.15" y2="264.29" gradientUnits="userSpaceOnUse"><stop offset="0" stop-color="#23bae4"/><stop offset="1" stop-color="#0099c4"/></linearGradient></defs><g id="Calque_2" data-name="Calque 2"><g id="Calque_2-2" data-name="Calque 2"><rect class="cls-1" width="264.29" height="264.29"/><g id="EXCLUSIVE"><path class="cls-2" d="M131.3,230.09a96.64,96.64,0,0,1-16-191.91,98.56,98.56,0,0,1,16.28-1.38,96.65,96.65,0,0,1-.24,193.29Z"/><path class="cls-3" d="M131.55,32.55v8.5h0A92.58,92.58,0,1,1,116,42.37a93.68,93.68,0,0,1,15.6-1.32v-8.5m0,0a100.9,100.9,0,0,0-.24,201.79,100.9,100.9,0,0,0,.23-201.79Z"/><path class="cls-2" d="M28.45,165.27A4.25,4.25,0,0,1,24.21,161a4.2,4.2,0,0,1,.38-1.74l8.22-18-8.22-18a4.24,4.24,0,0,1,2.12-5.62,4.16,4.16,0,0,1,1.74-.38H236.57a4.25,4.25,0,0,1,4.24,4.25,4.4,4.4,0,0,1-.37,1.75l-8.2,18,8.2,18a4.25,4.25,0,0,1-2.13,5.62,4.2,4.2,0,0,1-1.74.38Z"/><path class="cls-3" d="M236.57,121.44l-9,19.79,9,19.79H28.45l9-19.79-9-19.79H236.57m0-8.5H28.45A8.5,8.5,0,0,0,20,121.46a8.39,8.39,0,0,0,.76,3.48l7.42,16.26-7.42,16.29a8.5,8.5,0,0,0,4.15,11.28,8.64,8.64,0,0,0,3.58.78H236.57a8.53,8.53,0,0,0,7.74-12L237,141.23l7.4-16.26a8.52,8.52,0,0,0-7.74-12Z"/><circle class="cls-2" cx="131.28" cy="133.38" r="92.85"/><circle class="cls-2" cx="131.42" cy="133.45" r="83.61"/><path class="cls-3" d="M222,115.62c-2.66-1-5.28-1.91-7.9-2.69s-5.32-1.43-7.93-2l-3,.89A77.08,77.08,0,0,1,206,126.25l3.07-.3c2.21-1.5,4.44-3.12,6.59-4.84S220,117.55,222,115.62Z"/><path class="cls-3" d="M223.71,133.64c-2.4-1.52-4.76-2.92-7.22-4.19S211.6,127,209.1,126l-3.07.3a74.91,74.91,0,0,1,0,14.67l3.07.32c2.46-1,5-2.19,7.41-3.46S221.35,135.14,223.71,133.64Z"/><path class="cls-3" d="M222,151.65c-2.07-2-4.11-3.8-6.26-5.53s-4.32-3.36-6.57-4.86l-3.07-.32a76,76,0,0,1-2.9,14.4l2.95.91c2.61-.54,5.3-1.17,7.94-1.94S219.28,152.66,222,151.65Z"/><path class="cls-3" d="M216.6,168.94c-1.64-2.32-3.31-4.53-5.06-6.64a81.08,81.08,0,0,0-5.49-6l-3-.91A75.66,75.66,0,0,1,197.44,169l2.73,1.46c2.66,0,5.39-.13,8.16-.35S213.81,169.41,216.6,168.94Z"/><path class="cls-3" d="M208.05,184.87c-1.15-2.58-2.39-5.09-3.68-7.49s-2.75-4.77-4.2-7l-2.73-1.46a75.48,75.48,0,0,1-8.19,12.21l2.39,2c2.64.52,5.31.92,8.08,1.24S205.2,184.78,208.05,184.87Z"/><path class="cls-3" d="M196.55,198.84c-.6-2.75-1.35-5.47-2.15-8.07s-1.77-5.22-2.76-7.69l-2.39-2a75.5,75.5,0,0,1-10.4,10.37l2,2.39c2.51,1,5,1.93,7.69,2.79S193.78,198.19,196.55,198.84Z"/><path class="cls-3" d="M182.54,210.29c0-2.8-.26-5.62-.52-8.33s-.72-5.46-1.22-8.08l-2-2.39a75,75,0,0,1-12.22,8.12l1.44,2.73c2.25,1.51,4.55,2.89,7,4.25S180,209.12,182.54,210.29Z"/><path class="cls-3" d="M166.55,218.78c.49-2.78.85-5.57,1.12-8.28s.37-5.49.4-8.16l-1.44-2.73a76.32,76.32,0,0,1-13.6,5.6l.89,3q2.85,2.81,6,5.51C162,215.44,164.24,217.12,166.55,218.78Z"/><path class="cls-3" d="M149.25,224c1-2.66,1.91-5.27,2.69-7.9s1.43-5.32,2-7.92l-.89-3A76.29,76.29,0,0,1,138.62,208l.3,3.07c1.5,2.21,3.12,4.45,4.84,6.59S147.3,222,149.25,224Z"/><path class="cls-3" d="M131.23,225.74c1.52-2.41,2.92-4.77,4.2-7.22s2.44-4.9,3.47-7.4l-.3-3.07a74.91,74.91,0,0,1-14.67,0l-.31,3.08c1,2.45,2.18,5,3.45,7.4S129.73,223.38,131.23,225.74Z"/><path class="cls-3" d="M113.22,223.92c2-2.06,3.8-4.11,5.53-6.26s3.36-4.31,4.87-6.56l.31-3.08a74.27,74.27,0,0,1-14.4-2.9l-.91,3c.54,2.61,1.17,5.3,1.94,7.94S112.21,221.3,113.22,223.92Z"/><path class="cls-3" d="M96,218.63c2.32-1.65,4.53-3.32,6.64-5.07a79,79,0,0,0,6-5.49l.91-3A75.24,75.24,0,0,1,96,199.47l-1.46,2.72c0,2.66.13,5.39.35,8.16S95.46,215.84,96,218.63Z"/><path class="cls-3" d="M80,210.07c2.59-1.15,5.09-2.39,7.49-3.68s4.77-2.75,7-4.2L96,199.47a75.54,75.54,0,0,1-12.21-8.2l-2,2.39c-.52,2.64-.91,5.31-1.24,8.08S80.09,207.23,80,210.07Z"/><path class="cls-3" d="M66,198.55c2.74-.6,5.46-1.35,8.06-2.14s5.22-1.78,7.69-2.77l2-2.39a73.86,73.86,0,0,1-10.37-10.4l-2.39,2c-1,2.5-1.93,5-2.79,7.68S66.68,195.8,66,198.55Z"/><path class="cls-3" d="M54.58,184.55c2.8,0,5.62-.25,8.33-.52s5.47-.72,8.08-1.21l2.39-2a73.68,73.68,0,0,1-8.12-12.22L62.53,170c-1.51,2.25-2.89,4.56-4.24,7S55.75,182,54.58,184.55Z"/><path class="cls-3" d="M46.09,168.55c2.78.5,5.57.86,8.28,1.12s5.5.37,8.16.4l2.73-1.44a75.29,75.29,0,0,1-5.6-13.6l-3,.89q-2.82,2.85-5.52,6C49.43,164.07,47.75,166.26,46.09,168.55Z"/><path class="cls-3" d="M40.88,151.27c2.66,1,5.28,1.91,7.9,2.7s5.32,1.42,7.93,2l3-.89a76,76,0,0,1-2.84-14.42l-3.07.3c-2.21,1.49-4.45,3.11-6.59,4.84S43,149.33,40.88,151.27Z"/><path class="cls-3" d="M39.13,133.26c2.41,1.51,4.77,2.91,7.22,4.19s4.9,2.44,7.4,3.48l3.07-.3a75,75,0,0,1,0-14.68l-3.08-.31c-2.45,1-5,2.18-7.4,3.45S41.49,131.75,39.13,133.26Z"/><path class="cls-3" d="M41,115.25c2.06,2,4.11,3.79,6.26,5.52s4.32,3.36,6.56,4.87l3.08.31a74.42,74.42,0,0,1,2.9-14.4l-3-.9c-2.61.53-5.3,1.17-7.94,1.93S43.57,114.24,41,115.25Z"/><path class="cls-3" d="M46.24,98c1.65,2.32,3.32,4.53,5.07,6.64s3.6,4.14,5.49,6.06l3,.9A75.63,75.63,0,0,1,65.4,98l-2.72-1.43c-2.66,0-5.39.13-8.16.36S49,97.48,46.24,98Z"/><path class="cls-3" d="M54.8,82c1.15,2.59,2.39,5.1,3.68,7.5s2.75,4.77,4.2,7L65.4,98a74.89,74.89,0,0,1,8.2-12.21l-2.39-2c-2.64-.52-5.31-.91-8.08-1.23S57.64,82.11,54.8,82Z"/><path class="cls-3" d="M66.3,68.06c.6,2.74,1.35,5.46,2.14,8.06s1.78,5.22,2.77,7.69l2.39,2A73.79,73.79,0,0,1,84,75.45l-2-2.4c-2.5-1-5-1.93-7.68-2.79S69.07,68.7,66.3,68.06Z"/><path class="cls-3" d="M80.31,56.6c0,2.8.26,5.63.52,8.33S81.55,70.4,82,73l2,2.4a73.53,73.53,0,0,1,12.22-8.13l-1.48-2.73c-2.25-1.51-4.56-2.88-7-4.24S83,57.77,80.31,56.6Z"/><path class="cls-3" d="M96.3,48.11c-.5,2.78-.86,5.57-1.12,8.28s-.37,5.5-.4,8.16l1.44,2.73a75.68,75.68,0,0,1,13.6-5.59l-.89-3q-2.85-2.82-6-5.52C100.8,51.45,98.61,49.77,96.3,48.11Z"/><path class="cls-3" d="M113.6,42.9c-1,2.66-1.91,5.28-2.69,7.9s-1.43,5.32-2,7.93l.89,3a75.28,75.28,0,0,1,14.42-2.85l-.3-3.07c-1.49-2.2-3.11-4.44-4.84-6.59S115.54,45,113.6,42.9Z"/><path class="cls-3" d="M131.61,41.16c-1.51,2.41-2.91,4.76-4.19,7.22S125,53.27,124,55.77l.3,3.07a75,75,0,0,1,14.68,0l.31-3.07c-1-2.46-2.18-5-3.45-7.41S133.12,43.55,131.61,41.16Z"/><path class="cls-3" d="M149.62,43c-2,2.07-3.79,4.11-5.52,6.26s-3.36,4.32-4.87,6.57L139,58.87a75.33,75.33,0,0,1,14.4,2.9l.91-3c-.54-2.61-1.17-5.29-1.94-7.94S150.63,45.55,149.62,43Z"/><path class="cls-3" d="M167,48.27c-2.32,1.64-4.53,3.31-6.64,5.06s-4.14,3.6-6.05,5.49l-.91,3a76,76,0,0,1,13.57,5.66l1.46-2.72c0-2.67-.13-5.4-.36-8.17S167.39,51.06,167,48.27Z"/><path class="cls-3" d="M182.85,56.82c-2.59,1.15-5.09,2.39-7.49,3.68s-4.78,2.75-7,4.21l-1.46,2.72a75.7,75.7,0,0,1,12.21,8.19l2-2.39c.52-2.64.91-5.31,1.23-8.08S182.76,59.67,182.85,56.82Z"/><path class="cls-3" d="M196.81,68.32c-2.74.6-5.46,1.35-8.06,2.15s-5.22,1.77-7.69,2.76l-2,2.39A76.63,76.63,0,0,1,189.43,86l2.39-2c1-2.5,1.93-5,2.79-7.68S196.17,71.09,196.81,68.32Z"/><path class="cls-3" d="M208.27,82.33c-2.8,0-5.63.26-8.33.53s-5.47.71-8.08,1.21l-2.39,2a75,75,0,0,1,8.12,12.23l2.73-1.45c1.51-2.25,2.88-4.55,4.24-7S207.1,84.93,208.27,82.33Z"/><path class="cls-3" d="M216.76,98.32c-2.78-.49-5.57-.85-8.28-1.12s-5.5-.37-8.16-.4l-2.73,1.45a76.66,76.66,0,0,1,5.6,13.59l2.95-.89q2.82-2.85,5.52-6C213.42,102.83,215.1,100.63,216.76,98.32Z"/><rect class="cls-3" x="33.02" y="161.02" width="28.23" height="1.71"/><rect class="cls-3" x="203.81" y="161.02" width="23.81" height="1.71"/><circle class="cls-4" cx="131.67" cy="133.45" r="72.13"/><circle class="cls-4" cx="131.42" cy="133.45" r="35.26"/><circle class="cls-4" cx="131.42" cy="133.22" r="32.46" transform="translate(-12.19 253.2) rotate(-85.27)"/><polygon class="cls-3" points="139.16 92.68 131.42 88.62 123.69 92.68 125.17 84.07 118.91 77.97 127.56 76.72 131.42 68.89 135.29 76.72 143.93 77.97 137.68 84.07 139.16 92.68"/><polygon class="cls-3" points="123.69 173.18 131.42 177.24 139.16 173.18 137.68 181.79 143.93 187.89 135.29 189.14 131.42 196.97 127.56 189.14 118.91 187.89 125.17 181.79 123.69 173.18"/><polygon class="cls-3" points="159.75 162.72 164.69 165.33 169.64 162.72 168.7 168.23 172.7 172.13 167.17 172.94 164.69 177.95 162.22 172.94 156.69 172.13 160.69 168.23 159.75 162.72"/><polygon class="cls-3" points="101.84 162.2 96.9 164.8 91.95 162.2 92.9 167.71 88.89 171.61 94.42 172.42 96.9 177.43 99.37 172.42 104.9 171.61 100.9 167.71 101.84 162.2"/><polygon class="cls-3" points="102.72 104.28 97.77 101.68 92.83 104.28 93.77 98.77 89.77 94.87 95.3 94.07 97.77 89.06 100.25 94.07 105.78 94.87 101.78 98.77 102.72 104.28"/><polygon class="cls-3" points="160.62 104.81 165.57 102.21 170.52 104.81 169.57 99.3 173.57 95.4 168.04 94.59 165.57 89.58 163.1 94.59 157.56 95.4 161.57 99.3 160.62 104.81"/><rect class="cls-5" x="37.16" y="90.68" width="187.67" height="80.5" rx="7.57"/><path class="cls-6" d="M49,108.56H60.84v2h-9v6.25h8.31v2H51.84v8.51H49Z"/><path class="cls-6" d="M67.72,108.56v11.13c0,4.22,2.18,6,5.11,6,3.26,0,5.35-1.85,5.35-6V108.56h2.87v11c0,5.77-3.56,8.15-8.31,8.15-4.5,0-7.89-2.21-7.89-8V108.56Z"/><path class="cls-6" d="M86,127.37V108.56h3.1l7,9.52a50.31,50.31,0,0,1,3.94,6.11l.06,0a71.93,71.93,0,0,1-.32-7.73v-7.87h2.67v18.81H99.59l-7-9.54a60,60,0,0,1-4.11-6.28l-.1,0c.17,2.38.23,4.64.23,7.76v8Z"/><path class="cls-6" d="M107.42,108.56h2.83v9.07h.1c.59-.73,1.17-1.4,1.73-2l6.71-7.06h3.52l-8,8,8.57,10.83h-3.36l-7.23-9.24-2.09,2.07v7.17h-2.83Z"/><path class="cls-6" d="M143.3,117.77c0,6.47-4.59,9.91-10.2,9.91-5.8,0-9.87-3.85-9.87-9.55,0-6,4.33-9.88,10.2-9.88S143.3,112.19,143.3,117.77Zm-17,.31c0,4,2.54,7.62,7,7.62s7-3.55,7-7.82c0-3.74-2.28-7.65-7-7.65S126.26,114,126.26,118.08Z"/><path class="cls-6" d="M153.9,108.78a39.13,39.13,0,0,1,5.44-.36c2.8,0,4.86.56,6.16,1.56a4.74,4.74,0,0,1,1.92,3.94,5.1,5.1,0,0,1-1.69,4A10.09,10.09,0,0,1,159,120a11.32,11.32,0,0,1-2.28-.17v7.54H153.9Zm2.83,9.07a11,11,0,0,0,2.35.2c3.42,0,5.51-1.43,5.51-4s-2.06-3.68-5.18-3.68a14.19,14.19,0,0,0-2.68.19Z"/><path class="cls-6" d="M190,117.77c0,6.47-4.59,9.91-10.2,9.91-5.8,0-9.88-3.85-9.88-9.55,0-6,4.34-9.88,10.21-9.88S190,112.19,190,117.77Zm-17,.31c0,4,2.54,7.62,7,7.62s7-3.55,7-7.82c0-3.74-2.28-7.65-7-7.65S173,114,173,118.08Z"/><path class="cls-6" d="M193.7,108.78a39,39,0,0,1,5.44-.36c2.8,0,4.85.56,6.16,1.56a4.77,4.77,0,0,1,1.92,3.94,5.14,5.14,0,0,1-1.69,4,10.09,10.09,0,0,1-6.72,2.06,11.32,11.32,0,0,1-2.28-.17v7.54H193.7Zm2.83,9.07a11,11,0,0,0,2.35.2c3.42,0,5.51-1.43,5.51-4s-2.06-3.68-5.19-3.68a14.14,14.14,0,0,0-2.67.19Z"/><path class="cls-6" d="M70,150.9A11.32,11.32,0,0,0,75,152.13c2.9,0,4.6-1.31,4.6-3.21s-1.17-2.76-4.14-3.74c-3.59-1.09-5.8-2.68-5.8-5.33,0-2.93,2.83-5.11,7.1-5.11a11.46,11.46,0,0,1,4.86.92l-.78,2a9.84,9.84,0,0,0-4.17-.9c-3,0-4.14,1.54-4.14,2.82,0,1.76,1.33,2.62,4.36,3.63,3.72,1.23,5.61,2.76,5.61,5.53s-2.51,5.41-7.69,5.41a12.87,12.87,0,0,1-5.61-1.2Z"/><path class="cls-6" d="M90.58,137.12H83.9v-2.07h16.26v2.07H93.45v16.74H90.58Z"/><path class="cls-6" d="M105.44,135.05v18.81h-2.83V135.05Z"/><path class="cls-6" d="M125.75,153.25a16.31,16.31,0,0,1-5.8.89c-6.19,0-10.85-3.35-10.85-9.52,0-5.89,4.66-9.88,11.47-9.88a13.52,13.52,0,0,1,5.21.84l-.68,2a12,12,0,0,0-4.43-.78c-5.15,0-8.58,2.82-8.58,7.76,0,4.6,3.1,7.56,8.45,7.56a13.09,13.09,0,0,0,4.62-.78Z"/><path class="cls-6" d="M129.3,135.05h2.84v9.07h.1c.58-.73,1.17-1.39,1.73-2l6.71-7.06h3.52l-7.95,8,8.57,10.83h-3.36l-7.23-9.24-2.09,2.07v7.17H129.3Z"/><path class="cls-6" d="M158.35,145h-8.54v6.78h9.51v2H147V135.05h11.86v2h-9V143h8.54Z"/><path class="cls-6" d="M163,135.3a34.4,34.4,0,0,1,5.44-.39c3,0,5,.48,6.36,1.54a4.39,4.39,0,0,1,1.72,3.57c0,2.48-1.82,4.13-4.14,4.8v.08c1.7.5,2.71,1.84,3.23,3.8a26.72,26.72,0,0,0,1.7,5.16h-2.94a21.27,21.27,0,0,1-1.46-4.49c-.66-2.6-1.83-3.58-4.4-3.66h-2.68v8.15H163Zm2.83,8.57h2.9c3,0,5-1.42,5-3.57,0-2.43-2.06-3.49-5-3.52a13.86,13.86,0,0,0-2.81.22Z"/><path class="cls-6" d="M180.15,150.9a11.33,11.33,0,0,0,5.09,1.23c2.9,0,4.59-1.31,4.59-3.21s-1.17-2.76-4.14-3.74c-3.58-1.09-5.8-2.68-5.8-5.33,0-2.93,2.84-5.11,7.11-5.11a11.37,11.37,0,0,1,4.85.92l-.78,2a9.8,9.8,0,0,0-4.17-.9c-3,0-4.14,1.54-4.14,2.82,0,1.76,1.34,2.62,4.37,3.63,3.71,1.23,5.6,2.76,5.6,5.53s-2.51,5.41-7.69,5.41a12.83,12.83,0,0,1-5.6-1.2Z"/></g></g></g></svg>